<svg xmlns="http://www.w3.org/2000/svg" viewBox="0 0 120 120" fill="none">
  <rect width="120" height="120" rx="20" fill="#ffffff"/>
  <ellipse cx="60" cy="95" rx="32" ry="22" fill="#2c2416"/>
  <rect x="44" y="78" width="32" height="4" rx="2" fill="#2c2416"/>
  <rect x="40" y="60" width="40" height="22" rx="4" fill="#2c2416"/>
  <circle cx="60" cy="50" r="22" fill="#2c2416"/>
  <polygon points="42,34 33,14 48,28" fill="#2c2416"/>
  <polygon points="78,34 87,14 72,28" fill="#2c2416"/>
  <polygon points="43,33 36,20 47,28" fill="#e8c2c2"/>
  <polygon points="77,33 84,20 73,28" fill="#e8c2c2"/>
  <circle cx="52" cy="48" r="4.5" fill="#fcf8f0"/>
  <circle cx="68" cy="48" r="4.5" fill="#fcf8f0"/>
  <circle cx="53.5" cy="48" r="2.5" fill="#2c2416"/>
  <circle cx="69.5" cy="48" r="2.5" fill="#2c2416"/>
  <ellipse cx="50" cy="47" rx="1.5" ry="2" fill="#fcf8f0" opacity="0.8"/>
  <ellipse cx="66" cy="47" rx="1.5" ry="2" fill="#fcf8f0" opacity="0.8"/>
  <ellipse cx="60" cy="56" rx="3" ry="1.5" fill="#d4a0a0" opacity="0.6"/>
  <path d="M56,59 Q60,63 64,59" stroke="#3a3028" stroke-width="1" fill="none" stroke-linecap="round"/>
  <path d="M48,34 Q60,28 72,34" fill="#d4a0a0"/>
  <circle cx="60" cy="34" r="3" fill="#b88080"/>
  <rect x="36" y="68" width="8" height="14" rx="3" fill="#9cb89a" opacity="0.7"/>
  <rect x="76" y="68" width="8" height="14" rx="3" fill="#9cb89a" opacity="0.7"/>
  <line x1="36" y1="75" x2="84" y2="75" stroke="#3a3028" stroke-width="0.5" opacity="0.2"/>
  <rect x="52" y="82" width="16" height="2" rx="1" fill="#d4a0a0" opacity="0.3"/>
</svg>
